<svg width="33" height="32" fill="none" xmlns="http://www.w3.org/2000/svg"><path d="M21.282 25h-5.44c-.24 0-.474.084-.657.238L9.281 30v-5H6.187c-.273 0-.535-.105-.729-.293A.985.985 0 0 1 5.156 24V6c0-.265.109-.52.302-.707.194-.188.456-.293.73-.293h20.625c.273 0 .535.105.729.293a.985.985 0 0 1 .302.707v13.538a.988.988 0 0 1-.101.42 1.017 1.017 0 0 1-.273.342l-5.53 4.462a1.024 1.024 0 0 1-.658.238v0Zm.374-14v6m-6.187-6v6" stroke="#9A35FF" stroke-width="2" stroke-linecap="round" stroke-linejoin="round"/></svg>